<?xml version="1.0" encoding="UTF-8" standalone="no" ?>
<!DOCTYPE svg PUBLIC "-//W3C//DTD SVG 1.1//EN" "http://www.w3.org/Graphics/SVG/1.1/DTD/svg11.dtd">
<svg xmlns="http://www.w3.org/2000/svg" xmlns:xlink="http://www.w3.org/1999/xlink" version="1.1" width="1080" height="1080" viewBox="0 0 1080 1080" xml:space="preserve">
<desc>Created with Fabric.js 5.2.4</desc>
<defs>
</defs>
<g transform="matrix(1 0 0 1 540 540)" id="b3234f04-c36d-4273-b006-f236636825eb"  >
<rect style="stroke: none; stroke-width: 1; stroke-dasharray: none; stroke-linecap: butt; stroke-dashoffset: 0; stroke-linejoin: miter; stroke-miterlimit: 4; fill: rgb(255,255,255); fill-rule: nonzero; opacity: 1; visibility: hidden;" vector-effect="non-scaling-stroke"  x="-540" y="-540" rx="0" ry="0" width="1080" height="1080" />
</g>
<g transform="matrix(1 0 0 1 540 540)" id="424df610-49ae-4f3b-ba53-f686ab120af8"  >
</g>
<g transform="matrix(NaN NaN NaN NaN 0 0)"  >
<g style=""   >
</g>
</g>
<g transform="matrix(45 0 0 45 540 540)"  >
<path style="stroke: none; stroke-width: 1; stroke-dasharray: none; stroke-linecap: butt; stroke-dashoffset: 0; stroke-linejoin: miter; stroke-miterlimit: 4; fill: rgb(255,255,255); fill-rule: nonzero; opacity: 1;"  transform=" translate(-12, -12)" d="M 19 0 L 5 0 C 2.239 0 0 2.239 0 5 L 0 19 C 0 21.761 2.239 24 5 24 L 19 24 C 21.762 24 24 21.761 24 19 L 24 5 C 24 2.239 21.762 0 19 0 z M 8 19 L 5 19 L 5 8 L 8 8 L 8 19 z M 6.5 6.731999999999999 C 5.534 6.731999999999999 4.75 5.941999999999999 4.75 4.967999999999999 C 4.75 3.993999999999999 5.534 3.203999999999999 6.5 3.203999999999999 C 7.466 3.203999999999999 8.25 3.993999999999999 8.25 4.967999999999999 C 8.25 5.941999999999999 7.467 6.731999999999999 6.5 6.731999999999999 z M 20 19 L 17 19 L 17 13.396 C 17 10.028 13 10.283000000000001 13 13.396 L 13 19 L 10 19 L 10 8 L 13 8 L 13 9.765 C 14.396 7.179 20 6.988 20 12.241 L 20 19 z" stroke-linecap="round" />
</g>
</svg>