<svg xmlns="http://www.w3.org/2000/svg" width="169.005" height="164.841" viewBox="0 0 169.005 164.841">
  <path id="icons8-github" d="M88.5,4a84.51,84.51,0,0,0-26.71,164.686c4.236.77,5.776-1.815,5.776-4.071,0-2.008-.082-7.317-.11-14.359-23.519,5.089-28.47-11.332-28.47-11.332-3.851-9.766-9.38-12.379-9.38-12.379-7.675-5.226.578-5.116.578-5.116,8.472.6,12.928,8.692,12.928,8.692,7.537,12.928,19.778,9.187,24.592,7.042.77-5.474,2.971-9.188,5.364-11.306-18.76-2.118-38.483-9.38-38.483-41.756A32.751,32.751,0,0,1,43.28,61.407c-.853-2.117-3.769-10.728.825-22.363,0,0,7.1-2.256,23.244,8.665a80.388,80.388,0,0,1,42.306,0c16.147-10.92,23.216-8.665,23.216-8.665,4.621,11.636,1.733,20.246.853,22.363A32.607,32.607,0,0,1,142.389,84.1c0,32.459-19.75,39.583-38.565,41.7,3.026,2.586,5.722,7.757,5.722,15.624,0,11.306-.082,20.411-.082,23.189,0,2.256,1.513,4.9,5.8,4.071A84.521,84.521,0,0,0,88.5,4Z" transform="translate(-4 -4)" fill="#fff" fill-rule="evenodd"/>
</svg>
